<?xml version="1.0" encoding="utf-8"?>
<!-- Generator: Adobe Illustrator 23.1.1, SVG Export Plug-In . SVG Version: 6.00 Build 0)  -->
<svg version="1.1" id="Layer_1" xmlns="http://www.w3.org/2000/svg" xmlns:xlink="http://www.w3.org/1999/xlink" x="0px" y="0px"
	 viewBox="0 0 420.77 111.44" style="enable-background:new 0 0 420.77 111.44;" xml:space="preserve">
<style type="text/css">
	.st0{fill:#AC1512;}
</style>
<g>
	<path class="st0" d="M58.57,67.26V38.45L48.1,2.82h-3.91V1.87h15.66v0.95h-3.91l9.98,34.11L76.48,2.82h-3.82V1.87h9.59v0.95
		c-3.42,0-5.28,1.61-5.87,3.51L66.4,38.55v28.71h3.91v0.95H54.66v-0.95H58.57z"/>
	<path class="st0" d="M78.93,67.26c3.13,0,4.99-1.42,5.48-3.6L98.1,0.93h1.57l15.07,66.33h3.91v0.95H102.8v-0.95h3.91l-4.11-18.48
		H88.61L84.6,67.26h3.72v0.95h-9.39V67.26z M88.81,47.83h13.6L95.46,17.7L88.81,47.83z"/>
	<path class="st0" d="M139.79,1.87v0.95h-3.91v33.64l18.4-33.64h-3.62V1.87h9.59v0.95c-4.31,0-5.58,1.33-6.56,3.13L144,23.67
		l14.48,43.59h3.91v0.95h-15.56v-0.95h3.82l-11.64-34.59l-3.13,5.69v28.9h3.91v0.95h-15.66v-0.95h3.91V2.82h-3.91V1.87H139.79z"/>
	<path class="st0" d="M194.09,1.87l18.2,47.19V2.82h-3.91V1.87h9.3v0.95c-3.13,0-4.4,1.23-4.4,2.84V68.2h-1.57l-22.7-59.03v58.09
		h3.91v0.95h-9.3v-0.95c3.13,0,4.4-1.23,4.4-2.84V5.66c0-1.61-1.27-2.84-4.4-2.84V1.87H194.09z"/>
	<path class="st0" d="M254.17,67.26V38.45L243.7,2.82h-3.92V1.87h15.66v0.95h-3.91l9.98,34.11l10.57-34.11h-3.82V1.87h9.59v0.95
		c-3.42,0-5.28,1.61-5.87,3.51L262,38.55v28.71h3.91v0.95h-15.66v-0.95H254.17z"/>
	<path class="st0" d="M311.02,15.14h-0.98c0-6.82-2.84-12.32-6.36-12.32h-9.3v31.74h5.87c2.15,0,3.91-3.41,3.91-7.58h0.98v16.11
		h-0.98c0-4.17-1.76-7.58-3.91-7.58h-5.87v31.74h9.3c3.52,0,6.36-5.5,6.36-12.32h0.98V68.2h-28.38v-0.95h3.91V2.82h-3.91V1.87h28.38
		V15.14z"/>
	<path class="st0" d="M353.88,1.87v13.27h-0.98c0-6.82-2.84-12.32-6.36-12.32h-6.36v64.44h3.91v0.95h-15.66v-0.95h3.91V2.82h-6.36
		c-3.52,0-6.36,5.5-6.36,12.32h-0.98V1.87H353.88z"/>
	<path class="st0" d="M376.58,1.87v0.95h-3.92v64.44h3.92v0.95h-15.66v-0.95h3.91V2.82h-3.91V1.87H376.58z"/>
</g>
<g>
	<path d="M6.03,101.77H3.5V76.49l13.79,18.98V78h2.53v25.24L6.03,84.26V101.77z"/>
	<path d="M41.48,95.02H27.51c0.24,1.32,0.91,2.4,1.99,3.25c1.1,0.86,2.33,1.29,3.68,1.29c0.91,0,1.79-0.2,2.62-0.61
		c0.83-0.41,1.52-0.97,2.08-1.7h2.89c-0.67,1.47-1.69,2.63-3.05,3.48s-2.74,1.28-4.15,1.28c-1.41,0-2.61-0.21-3.61-0.63
		c-1-0.42-1.88-0.99-2.64-1.71c-1.62-1.55-2.44-3.44-2.44-5.66c0-2.21,0.81-4.11,2.44-5.68s3.58-2.36,5.87-2.36
		c2.22,0,4.15,0.76,5.79,2.27c1.67,1.54,2.51,3.37,2.51,5.49V95.02z M36.77,89.67c-1.04-0.84-2.24-1.26-3.59-1.26
		c-2.06,0-3.68,0.9-4.87,2.71c-0.36,0.55-0.61,1.15-0.76,1.8h11.26C38.52,91.62,37.84,90.53,36.77,89.67z"/>
	<path d="M46.35,110.51V86.39h2.53v2.63c0.14-0.18,0.29-0.36,0.45-0.53c1.5-1.63,3.35-2.45,5.54-2.45c2.19,0,4.04,0.82,5.54,2.45
		c1.46,1.58,2.18,3.45,2.18,5.59c0,2.15-0.73,4.01-2.18,5.59c-1.5,1.63-3.35,2.45-5.54,2.45c-2.19,0-4.04-0.82-5.54-2.45
		c-0.16-0.17-0.31-0.35-0.45-0.53v11.37H46.35z M58.46,90.16c-1.08-1.12-2.41-1.68-3.99-1.68s-2.91,0.56-3.99,1.68
		c-1.07,1.11-1.61,2.42-1.61,3.92s0.54,2.8,1.61,3.92c1.08,1.12,2.41,1.68,3.99,1.68s2.91-0.56,3.99-1.68
		c1.07-1.11,1.61-2.42,1.61-3.92S59.54,91.28,58.46,90.16z"/>
	<path d="M80.29,101.77v-2.63c-0.14,0.18-0.29,0.36-0.45,0.53c-1.5,1.63-3.35,2.45-5.54,2.45s-4.04-0.82-5.54-2.45
		c-1.46-1.58-2.18-3.45-2.18-5.59c0-2.15,0.73-4.01,2.18-5.59c1.5-1.63,3.35-2.45,5.54-2.45s4.04,0.82,5.54,2.45
		c0.16,0.17,0.31,0.35,0.45,0.53v-2.63h2.53v15.38H80.29z M78.68,90.16c-1.08-1.12-2.41-1.68-3.99-1.68s-2.91,0.56-3.99,1.68
		c-1.07,1.11-1.61,2.42-1.61,3.92s0.54,2.8,1.61,3.92c1.08,1.12,2.41,1.68,3.99,1.68s2.91-0.56,3.99-1.68
		c1.07-1.11,1.61-2.42,1.61-3.92S79.75,91.28,78.68,90.16z"/>
	<path d="M88.95,101.77V75.55h2.53v26.22H88.95z"/>
	<path d="M113.14,95.02H99.17c0.24,1.32,0.91,2.4,1.99,3.25c1.1,0.86,2.33,1.29,3.68,1.29c0.91,0,1.79-0.2,2.62-0.61
		c0.83-0.41,1.52-0.97,2.08-1.7h2.89c-0.67,1.47-1.69,2.63-3.05,3.48s-2.74,1.28-4.15,1.28c-1.41,0-2.61-0.21-3.61-0.63
		c-1-0.42-1.88-0.99-2.64-1.71c-1.62-1.55-2.44-3.44-2.44-5.66c0-2.21,0.81-4.11,2.44-5.68s3.58-2.36,5.87-2.36
		c2.22,0,4.15,0.76,5.79,2.27c1.67,1.54,2.51,3.37,2.51,5.49V95.02z M108.43,89.67c-1.04-0.84-2.24-1.26-3.59-1.26
		c-2.06,0-3.68,0.9-4.87,2.71c-0.36,0.55-0.61,1.15-0.76,1.8h11.26C110.18,91.62,109.5,90.53,108.43,89.67z"/>
	<path d="M122.77,100.2c2.31,0,3.47-0.84,3.47-2.51c0-0.98-0.83-1.72-2.48-2.25c-0.7-0.22-1.45-0.43-2.25-0.62
		c-0.81-0.19-1.56-0.44-2.27-0.75c-0.82-0.37-1.43-0.83-1.84-1.39s-0.61-1.23-0.61-1.99c0-1.53,0.55-2.68,1.66-3.47
		c1.11-0.79,2.44-1.18,3.97-1.18c1.53,0,2.81,0.31,3.84,0.92c1.01,0.61,1.69,1.68,2.03,3.24h-2.71c-0.27-0.86-0.68-1.43-1.23-1.71
		c-0.55-0.28-1.22-0.42-2-0.42c-0.79,0-1.46,0.17-2.03,0.5c-0.58,0.33-0.87,0.85-0.87,1.54s0.24,1.2,0.72,1.52
		c0.47,0.32,1.05,0.58,1.76,0.79c0.7,0.21,1.45,0.41,2.25,0.58c0.81,0.17,1.57,0.43,2.28,0.75c1.63,0.75,2.45,1.96,2.45,3.62
		c0,1.66-0.61,2.88-1.84,3.67c-0.62,0.4-1.3,0.69-2.04,0.89c-0.74,0.2-1.54,0.29-2.4,0.29c-3.68,0-5.8-1.58-6.35-4.75h2.67
		c0.27,1,0.72,1.7,1.36,2.11C120.95,99.99,121.77,100.2,122.77,100.2z"/>
	<path d="M148.77,95.02H134.8c0.24,1.32,0.91,2.4,1.99,3.25c1.1,0.86,2.33,1.29,3.68,1.29c0.91,0,1.79-0.2,2.62-0.61
		c0.83-0.41,1.52-0.97,2.08-1.7h2.89c-0.67,1.47-1.69,2.63-3.05,3.48s-2.74,1.28-4.15,1.28c-1.41,0-2.61-0.21-3.61-0.63
		c-1-0.42-1.88-0.99-2.64-1.71c-1.62-1.55-2.44-3.44-2.44-5.66c0-2.21,0.81-4.11,2.44-5.68s3.58-2.36,5.87-2.36
		c2.22,0,4.15,0.76,5.79,2.27c1.67,1.54,2.51,3.37,2.51,5.49V95.02z M144.06,89.67c-1.04-0.84-2.24-1.26-3.59-1.26
		c-2.06,0-3.68,0.9-4.87,2.71c-0.36,0.55-0.61,1.15-0.76,1.8h11.26C145.81,91.62,145.13,90.53,144.06,89.67z"/>
	<path d="M179.63,96.42l4.22,5.35l-3.32,0.07l-2.67-3.39c-1.2,1.16-2.16,1.96-2.9,2.41c-1.47,0.89-2.77,1.33-3.89,1.33
		c-1.13,0-2.13-0.17-3.01-0.51c-0.88-0.34-1.64-0.82-2.27-1.43c-1.36-1.32-2.04-2.97-2.04-4.95c0-2.3,1.17-4.27,3.5-5.93
		c0.67-0.48,1.37-0.97,2.09-1.49c-1.73-1.94-2.6-3.64-2.6-5.12c0-1.48,0.48-2.7,1.44-3.67c0.96-0.97,2.24-1.45,3.83-1.45
		c1.53,0,2.77,0.46,3.74,1.36c1,0.94,1.5,2.13,1.5,3.57c0,1.53-0.94,3.05-2.82,4.56c-0.51,0.41-0.99,0.79-1.44,1.14l5.05,6.26
		c0.48-0.56,0.95-1.12,1.41-1.68l1.37-1.68l2.06,1.33C182.52,92.98,181.44,94.29,179.63,96.42z M168.02,91.94
		c-1.18,1.15-1.78,2.21-1.78,3.19c0,1.17,0.44,2.22,1.32,3.15c0.88,0.93,1.94,1.4,3.16,1.4c1.33,0,2.79-0.73,4.39-2.18
		c0.42-0.38,0.81-0.75,1.17-1.1l-5.38-6.68C169.51,90.68,168.55,91.42,168.02,91.94z M171.51,86.7c0.36-0.26,0.74-0.52,1.14-0.79
		c0.4-0.27,0.76-0.57,1.1-0.89c0.77-0.75,1.16-1.55,1.16-2.41s-0.3-1.54-0.9-2.03s-1.27-0.75-2-0.79c-0.73-0.04-1.4,0.18-2,0.65
		s-0.9,1.21-0.9,2.23s0.53,2.07,1.59,3.13C170.97,86.1,171.25,86.4,171.51,86.7z"/>
	<path d="M200.17,101.77V78h2.53v23.77H200.17z"/>
	<path d="M219.81,92.16c0-1-0.23-1.86-0.7-2.57c-0.47-0.71-1.25-1.07-2.33-1.07s-1.96,0.2-2.64,0.59c-0.67,0.4-1.22,0.91-1.64,1.55
		c-0.76,1.15-1.14,2.71-1.14,4.67v6.43h-2.53V86.39h2.53v2.64c0.53-0.86,1.2-1.56,2.02-2.1c0.87-0.57,1.87-0.86,3-0.86
		c1.13,0,2.05,0.16,2.74,0.47c0.7,0.32,1.29,0.75,1.77,1.29c0.96,1.1,1.44,2.53,1.44,4.32v9.61h-2.53V92.16z"/>
	<path d="M240.57,101.77v-2.63c-0.14,0.18-0.29,0.36-0.45,0.53c-1.5,1.63-3.35,2.45-5.54,2.45c-2.19,0-4.04-0.82-5.54-2.45
		c-1.46-1.58-2.18-3.45-2.18-5.59c0-2.15,0.73-4.01,2.18-5.59c1.5-1.63,3.35-2.45,5.54-2.45c2.19,0,4.04,0.82,5.54,2.45
		c0.16,0.17,0.31,0.35,0.45,0.53V75.55h2.53v26.22H240.57z M238.96,90.16c-1.08-1.12-2.41-1.68-3.99-1.68s-2.91,0.56-3.99,1.68
		c-1.07,1.11-1.61,2.42-1.61,3.92s0.54,2.8,1.61,3.92c1.08,1.12,2.41,1.68,3.99,1.68s2.91-0.56,3.99-1.68
		c1.07-1.11,1.61-2.42,1.61-3.92S240.03,91.28,238.96,90.16z"/>
	<path d="M252.26,82.18c0,0.43-0.16,0.8-0.47,1.1c-0.31,0.3-0.69,0.46-1.14,0.46s-0.82-0.15-1.14-0.46c-0.31-0.3-0.47-0.67-0.47-1.1
		c0-0.43,0.16-0.8,0.47-1.1c0.31-0.3,0.69-0.45,1.14-0.45s0.82,0.15,1.14,0.45C252.11,81.38,252.26,81.74,252.26,82.18z
		 M249.41,101.77V86.39h2.53v15.38H249.41z"/>
	<path d="M270.85,101.77v-2.63c-0.14,0.18-0.29,0.36-0.45,0.53c-1.5,1.63-3.35,2.45-5.54,2.45c-2.19,0-4.04-0.82-5.54-2.45
		c-1.46-1.58-2.18-3.45-2.18-5.59c0-2.15,0.73-4.01,2.18-5.59c1.5-1.63,3.35-2.45,5.54-2.45c2.19,0,4.04,0.82,5.54,2.45
		c0.16,0.17,0.31,0.35,0.45,0.53v-2.63h2.53v15.38H270.85z M269.25,90.16c-1.08-1.12-2.41-1.68-3.99-1.68s-2.91,0.56-3.99,1.68
		c-1.07,1.11-1.61,2.42-1.61,3.92s0.54,2.8,1.61,3.92c1.08,1.12,2.41,1.68,3.99,1.68s2.91-0.56,3.99-1.68
		c1.07-1.11,1.61-2.42,1.61-3.92S270.32,91.28,269.25,90.16z"/>
	<path d="M290.49,92.16c0-1-0.23-1.86-0.7-2.57s-1.25-1.07-2.33-1.07c-1.08,0-1.96,0.2-2.64,0.59c-0.67,0.4-1.22,0.91-1.64,1.55
		c-0.76,1.15-1.14,2.71-1.14,4.67v6.43h-2.53V86.39h2.53v2.64c0.53-0.86,1.2-1.56,2.02-2.1c0.87-0.57,1.87-0.86,3-0.86
		s2.05,0.16,2.74,0.47c0.7,0.32,1.29,0.75,1.77,1.29c0.96,1.1,1.44,2.53,1.44,4.32v9.61h-2.53V92.16z"/>
	<path d="M311.61,80.27v8.46h11.7v2.31h-11.7v10.73h-2.53V78h14.58v2.27H311.61z"/>
	<path d="M327.82,101.77V75.55h2.53v26.22H327.82z"/>
	<path d="M349.12,101.77v-2.63c-0.14,0.18-0.29,0.36-0.45,0.53c-1.5,1.63-3.35,2.45-5.54,2.45s-4.04-0.82-5.54-2.45
		c-1.46-1.58-2.18-3.45-2.18-5.59c0-2.15,0.73-4.01,2.18-5.59c1.5-1.63,3.35-2.45,5.54-2.45s4.04,0.82,5.54,2.45
		c0.16,0.17,0.31,0.35,0.45,0.53v-2.63h2.53v15.38H349.12z M347.51,90.16c-1.08-1.12-2.41-1.68-3.99-1.68s-2.91,0.56-3.99,1.68
		c-1.07,1.11-1.61,2.42-1.61,3.92s0.54,2.8,1.61,3.92c1.08,1.12,2.41,1.68,3.99,1.68s2.91-0.56,3.99-1.68
		c1.07-1.11,1.61-2.42,1.61-3.92S348.58,91.28,347.51,90.16z"/>
	<path d="M355.43,86.39h2.74l4.58,11.43l4.55-11.43h2.74l-7.29,16.85L355.43,86.39z"/>
	<path d="M386.93,99.67c-1.64,1.56-3.59,2.34-5.87,2.34s-4.23-0.78-5.87-2.34c-1.62-1.55-2.44-3.44-2.44-5.66
		c0-2.21,0.81-4.11,2.44-5.68s3.58-2.36,5.87-2.36c2.29,0,4.24,0.79,5.87,2.36c1.62,1.57,2.44,3.47,2.44,5.68
		C389.37,96.24,388.56,98.12,386.93,99.67z M385.15,90.06c-1.13-1.1-2.49-1.64-4.08-1.64c-1.59,0-2.95,0.55-4.08,1.64
		s-1.7,2.41-1.7,3.95c0,1.51,0.57,2.82,1.7,3.92c1.13,1.1,2.49,1.64,4.08,1.64c1.59,0,2.95-0.55,4.08-1.64
		c1.13-1.09,1.7-2.4,1.7-3.92C386.84,92.47,386.28,91.15,385.15,90.06z"/>
	<path d="M400.72,88.8c-0.66,0-1.22,0.18-1.69,0.54c-0.47,0.36-0.86,0.8-1.17,1.33c-0.6,1.01-0.9,2.14-0.9,3.41v7.69h-2.53V86.39
		h2.53v3.18l0.11-0.63c0.85-1.91,2.16-2.87,3.94-2.87c0.55,0,1.08,0.11,1.59,0.31v3.18C402,89.06,401.38,88.8,400.72,88.8z"/>
	<path d="M411.13,100.2c2.31,0,3.47-0.84,3.47-2.51c0-0.98-0.83-1.72-2.48-2.25c-0.7-0.22-1.45-0.43-2.25-0.62
		c-0.81-0.19-1.56-0.44-2.27-0.75c-0.82-0.37-1.43-0.83-1.84-1.39c-0.41-0.56-0.61-1.23-0.61-1.99c0-1.53,0.55-2.68,1.66-3.47
		c1.11-0.79,2.44-1.18,3.97-1.18c1.53,0,2.81,0.31,3.84,0.92c1.01,0.61,1.69,1.68,2.03,3.24h-2.71c-0.27-0.86-0.68-1.43-1.23-1.71
		c-0.55-0.28-1.22-0.42-2-0.42s-1.46,0.17-2.03,0.5c-0.58,0.33-0.87,0.85-0.87,1.54s0.24,1.2,0.72,1.52
		c0.47,0.32,1.05,0.58,1.75,0.79c0.7,0.21,1.45,0.41,2.25,0.58c0.81,0.17,1.57,0.43,2.28,0.75c1.64,0.75,2.45,1.96,2.45,3.62
		c0,1.66-0.61,2.88-1.84,3.67c-0.61,0.4-1.29,0.69-2.04,0.89c-0.74,0.2-1.54,0.29-2.4,0.29c-3.68,0-5.8-1.58-6.35-4.75h2.67
		c0.27,1,0.72,1.7,1.36,2.11C409.31,99.99,410.13,100.2,411.13,100.2z"/>
</g>
</svg>
